<svg width="160" height="160" viewBox="0 0 160 160" fill="none" xmlns="http://www.w3.org/2000/svg">
  <defs>
    <linearGradient id="babyEaseGrad" x1="0" y1="0" x2="160" y2="160" gradientUnits="userSpaceOnUse">
      <stop offset="0%" stop-color="#5B7FFF"/>
      <stop offset="50%" stop-color="#7FE3CC"/>
      <stop offset="100%" stop-color="#FF8AB8"/>
    </linearGradient>
  </defs>
  <!-- Outer rounded "B" shape representing parent embrace -->
  <path d="M52 24c-12 0-20 8-20 20v72c0 12 8 20 20 20h30c22 0 38-12 38-30 0-11-6-20-16-24 12-4 20-14 20-28 0-22-16-30-38-30H52z" fill="url(#babyEaseGrad)"/>
  <!-- Baby head circle -->
  <circle cx="78" cy="56" r="14" fill="#FFF" opacity="0.9"/>
  <!-- Small heart indicating care -->
  <path d="M86 96c-2-3-6-3-8 0-2-3-6-3-8 0-2 3-1 7 2 10l6 5 6-5c3-3 4-7 2-10z" fill="#FF8AB8"/>
  <title>BabyEase Logo</title>
</svg>
